<?xml version="1.0" standalone="no"?><!DOCTYPE svg PUBLIC "-//W3C//DTD SVG 1.1//EN" "http://www.w3.org/Graphics/SVG/1.1/DTD/svg11.dtd"><svg t="1684743514018" class="icon" viewBox="0 0 1024 1024" version="1.1" xmlns="http://www.w3.org/2000/svg" p-id="6851" xmlns:xlink="http://www.w3.org/1999/xlink" width="200" height="200"><path d="M513.221155 1023.997336a511.99667 511.99667 0 0 1 0-1023.993339 521.099819 521.099819 0 0 1 375.67145 157.861939 478.692463 478.692463 0 0 1 133.216827 355.24487v2.664337c-27.531477 175.846211-139.877668 263.32526-234.461615 259.328755-73.047226-3.108393-123.669621-56.839179-129.220321-136.769275a22.202804 22.202804 0 0 1 20.648608-23.090916 22.202804 22.202804 0 0 1 23.757001 20.648608c3.774477 56.617151 37.078683 93.251779 86.812965 95.472059 75.933591 2.664337 164.522781-71.49303 188.279781-222.028044a434.952938 434.952938 0 0 0-121.227312-321.27458A476.916239 476.916239 0 0 0 513.221155 44.409605a467.591061 467.591061 0 0 0 0 935.182122 480.912743 480.912743 0 0 0 365.680189-166.076977 22.202804 22.202804 0 0 1 31.305954-2.664337 22.202804 22.202804 0 0 1 2.664336 31.305955 526.428492 526.428492 0 0 1-399.650479 181.840968z" fill="#8a8a8a" p-id="6852"></path><path d="M488.354014 773.549702a212.924894 212.924894 0 0 1-133.216826-49.95631c-112.568218-88.811218-121.44934-215.145175-24.423085-346.363749 86.590937-117.008779 238.680147-151.423126 339.258851-77.265759s116.786751 229.799026 32.860151 343.477384c-54.840927 73.713311-122.115424 119.451088-189.61195 128.33221a197.382931 197.382931 0 0 1-24.867141 1.776224z m-121.227312-369.898721c-58.171348 78.3759-102.354928 191.388174 16.208047 285.084008a164.300753 164.300753 0 0 0 124.779761 39.076936c55.507011-7.326925 112.124162-46.847917 159.638164-111.014022 69.494778-93.917863 58.837432-220.029792-23.757001-281.309532s-204.931885-29.307702-276.868971 67.940582z" fill="#8a8a8a" p-id="6853"></path></svg>