<?xml version="1.0" standalone="no"?><!DOCTYPE svg PUBLIC "-//W3C//DTD SVG 1.1//EN" "http://www.w3.org/Graphics/SVG/1.1/DTD/svg11.dtd"><svg t="1684138841454" class="icon" viewBox="0 0 1024 1024" version="1.1" xmlns="http://www.w3.org/2000/svg" p-id="8989" xmlns:xlink="http://www.w3.org/1999/xlink" width="200" height="200"><path d="M529.2032 618.9056c-0.9216 0-1.8944-0.0512-2.8672-0.1536a30.69952 30.69952 0 0 1-24.5248-16.64L425.1648 451.7888l-24.7296 48.8448a30.67904 30.67904 0 0 1-27.392 16.8448h-268.288c-16.9472 0-30.72-13.7728-30.72-30.72s13.7728-30.72 30.72-30.72h249.3952l43.52-85.9136A30.75584 30.75584 0 0 1 425.0112 353.28h0.0512c11.5712 0 22.1184 6.4512 27.392 16.7424l82.0736 160.9728 49.1008-63.6928a30.80704 30.80704 0 0 1 24.32-11.9808h316.3648c16.9472 0 30.72 13.7728 30.72 30.72s-13.7728 30.72-30.72 30.72h-301.2608l-69.5296 90.1632a30.73024 30.73024 0 0 1-24.32 11.9808z" fill="#8a8a8a" p-id="8990"></path><path d="M514.5088 917.9136c-41.216 0-79.9232-16.384-109.0048-46.08l-266.0864-271.872C32.256 490.496 32.256 312.3712 139.4176 202.9056 191.5392 149.6576 260.864 120.32 334.6432 120.32c66.7648 0 129.8432 23.9616 179.8656 67.9424 50.0224-43.9808 113.1008-67.9424 179.8656-67.9424 73.7792 0 143.1552 29.3376 195.2768 82.5856 107.1616 109.4656 107.1616 287.5904 0 397.056l-266.0864 271.872c-29.1328 29.696-67.84 46.08-109.056 46.08zM334.6432 181.76c-57.1392 0-110.8992 22.784-151.3472 64.1024-83.968 85.76-83.968 225.3312 0 311.1424l266.0864 271.872c17.408 17.8176 40.5504 27.5968 65.0752 27.5968 24.576 0 47.6672-9.7792 65.0752-27.5968l266.0864-271.872c83.968-85.76 83.968-225.3312 0-311.1424-40.448-41.3184-94.208-64.1024-151.3472-64.1024s-110.8992 22.784-151.3472 64.1024l-6.5536 6.7072a30.75072 30.75072 0 0 1-21.9648 9.216c-8.2432 0-16.1792-3.328-21.9648-9.216l-6.5536-6.7072C445.5424 204.544 391.7824 181.76 334.6432 181.76z" fill="#8a8a8a" p-id="8991"></path></svg>