<?xml version="1.0" standalone="no"?><!DOCTYPE svg PUBLIC "-//W3C//DTD SVG 1.1//EN" "http://www.w3.org/Graphics/SVG/1.1/DTD/svg11.dtd"><svg t="1684722911895" class="icon" viewBox="0 0 1024 1024" version="1.1" xmlns="http://www.w3.org/2000/svg" p-id="7510" xmlns:xlink="http://www.w3.org/1999/xlink" width="200" height="200"><path d="M433.92 128a29.504 29.504 0 0 1 27.392 16.128l82.496 142.848h288.064a128 128 0 0 1 128 128v77.504a32.128 32.128 0 1 1-64.32 2.368v-80a64 64 0 0 0-64-64H529.152a32.192 32.192 0 0 1-31.488-15.744l-82.688-143.36H192.384a64 64 0 0 0-64 64v575.744c0 35.328 28.736 64 64 64h639.36a64 64 0 0 0 64-64v-80.64a32.128 32.128 0 0 1 64.384 0c0 0.768 0 1.536-0.128 2.368v76.864a128 128 0 0 1-128 128H192a128 128 0 0 1-128-128V256a128 128 0 0 1 128-128h241.92z m77.952 292.48c8.32 0 15.36 2.944 21.248 8.832a28.928 28.928 0 0 1 8.832 21.248v141.632h141.632c8.32 0 15.36 2.944 21.248 8.768a28.928 28.928 0 0 1 8.768 21.248c0 8.32-2.88 15.36-8.768 21.248a28.928 28.928 0 0 1-21.248 8.832H541.952v141.632c0 8.32-2.944 15.36-8.832 21.248a28.928 28.928 0 0 1-21.248 8.768 28.928 28.928 0 0 1-21.248-8.768 28.928 28.928 0 0 1-8.768-21.248v-141.632H340.224a28.928 28.928 0 0 1-21.248-8.832 28.928 28.928 0 0 1-8.832-21.248c0-8.32 2.944-15.36 8.832-21.248a28.928 28.928 0 0 1 21.248-8.768h141.632V450.56c0-8.32 2.944-15.36 8.768-21.248a28.928 28.928 0 0 1 21.248-8.832z m416 170.304a32.192 32.192 0 0 1 22.784 54.784 32.128 32.128 0 0 1-45.504 0 32 32 0 0 1 22.72-54.784z" p-id="7511" fill="#8a8a8a"></path></svg>