<?xml version="1.0" standalone="no"?><!DOCTYPE svg PUBLIC "-//W3C//DTD SVG 1.1//EN" "http://www.w3.org/Graphics/SVG/1.1/DTD/svg11.dtd"><svg t="1691545946477" class="icon" viewBox="0 0 1024 1024" version="1.1" xmlns="http://www.w3.org/2000/svg" p-id="4023" xmlns:xlink="http://www.w3.org/1999/xlink" width="200" height="200"><path d="M924.43026 238.663658 770.369466 238.663658l0-104.254435c0-38.566364-31.397081-69.990051-69.963445-69.990051L323.606259 64.419172c-38.566364 0-69.949118 31.423687-69.949118 69.990051l0 104.3363-154.334018 0.054235c-9.286504 0-18.013259 3.619434-24.595164 10.228969-6.568602 6.5553-10.188037 15.308661-10.160407 24.581861 0 19.173688 15.59621 34.81083 34.783201 34.81083l78.594009-0.013303L177.944761 889.430118c0 38.566364 31.382754 69.990051 69.963445 69.990051l528.225543 0c38.566364 0 69.963445-31.423687 69.963445-69.990051L846.097194 330.860477l-0.163729 0-0.013303-22.560832 78.539774-0.013303c19.188015 0 34.783201-15.637142 34.783201-34.851763C959.213461 254.259868 943.603949 238.663658 924.43026 238.663658zM412.347372 822.007543c-19.188015 0-34.783201-15.637142-34.783201-34.81083L377.399419 414.779771c0-19.173688 15.59621-34.824133 34.797527-34.824133 19.188015 0 34.783201 15.650445 34.783201 34.824133l0.163729 372.361683C447.143876 806.316166 431.521061 821.966611 412.347372 822.007543zM611.842962 822.007543c-19.201318 0-34.81083-15.637142-34.81083-34.81083L576.868403 414.779771c0-19.173688 15.59621-34.824133 34.783201-34.824133 19.201318 0 34.797527 15.650445 34.797527 34.824133l0.163729 372.361683C646.627187 806.316166 631.030977 821.966611 611.842962 822.007543zM323.401598 177.427992c0-23.844058 19.405979-43.210128 43.223431-43.210128l290.763247 0c23.844058 0 43.25106 19.365046 43.25106 43.210128l0 61.277622-377.237737 0.040932L323.401598 177.427992z" fill="#8a8a8a" p-id="4024"></path></svg>