<?xml version="1.0" standalone="no"?><!DOCTYPE svg PUBLIC "-//W3C//DTD SVG 1.1//EN" "http://www.w3.org/Graphics/SVG/1.1/DTD/svg11.dtd"><svg t="1684293807415" class="icon" viewBox="0 0 1024 1024" version="1.1" xmlns="http://www.w3.org/2000/svg" p-id="36882" xmlns:xlink="http://www.w3.org/1999/xlink" width="200" height="200"><path d="M810.666667 170.666667H213.333333c-46.933333 0-85.333333 38.4-85.333333 85.333333v512c0 46.933333 38.4 85.333333 85.333333 85.333333h597.333334c46.933333 0 85.333333-38.4 85.333333-85.333333V256c0-46.933333-38.4-85.333333-85.333333-85.333333z m-341.333334 469.333333H405.333333v-85.333333h-85.333333v85.333333H256V384h64v106.666667h85.333333V384H469.333333v256z m298.666667-42.666667c0 25.6-17.066667 42.666667-42.666667 42.666667h-34.133333v64h-64V640H597.333333c-25.6 0-42.666667-17.066667-42.666666-42.666667v-170.666666c0-25.6 17.066667-42.666667 42.666666-42.666667h128c25.6 0 42.666667 17.066667 42.666667 42.666667v170.666666z m-149.333333-21.333333h85.333333v-128h-85.333333v128z" p-id="36883" fill="#d81e06"></path></svg>