<?xml version="1.0" standalone="no"?><!DOCTYPE svg PUBLIC "-//W3C//DTD SVG 1.1//EN" "http://www.w3.org/Graphics/SVG/1.1/DTD/svg11.dtd"><svg t="1684293438787" class="icon" viewBox="0 0 2457 1024" version="1.1" xmlns="http://www.w3.org/2000/svg" p-id="2448" xmlns:xlink="http://www.w3.org/1999/xlink" width="479.8828125" height="200"><path d="M2201.6 0c143.36 0 256 112.64 256 256v512c0 143.36-112.64 256-256 256H256c-143.36 0-256-112.64-256-256V256c0-143.36 112.64-256 256-256h1945.6z m0 51.2H256C148.48 51.2 56.32 138.24 51.2 245.76V768c0 107.52 87.04 199.68 194.56 204.8H2201.6c107.52 0 199.68-87.04 204.8-194.56V256c0-107.52-87.04-199.68-194.56-204.8H2201.6z" fill="#d81e06" p-id="2449"></path><path d="M363.52 783.36v-261.12H563.2v261.12h107.52v-563.2H563.2v220.16H363.52V215.04H256v568.32h107.52z m445.44-465.92c46.08 0 56.32-5.12 56.32-56.32S855.04 204.8 808.96 204.8s-56.32 5.12-56.32 56.32c-5.12 46.08 10.24 56.32 56.32 56.32z m51.2 471.04V343.04h-102.4v440.32h102.4z m312.32-5.12v-215.04h51.2l143.36 215.04H1484.8l-163.84-225.28c76.8-20.48 107.52-71.68 107.52-163.84 0-128-66.56-174.08-220.16-174.08h-148.48v568.32l112.64-5.12z m25.6-291.84h-30.72V302.08h30.72c92.16 0 128 15.36 128 87.04 0 87.04-35.84 102.4-128 102.4z m491.52 302.08c71.68 0 138.24-15.36 163.84-30.72v-81.92c-30.72 15.36-92.16 30.72-143.36 30.72-87.04 0-122.88-35.84-128-107.52l286.72-5.12c0-15.36 5.12-35.84 5.12-56.32 0-102.4-30.72-204.8-184.32-204.8-133.12 0-209.92 51.2-209.92 230.4s76.8 225.28 209.92 225.28z m-107.52-261.12c0-76.8 25.6-117.76 107.52-117.76 76.8 0 87.04 61.44 87.04 117.76h-194.56z m465.92 261.12c112.64 0 174.08-35.84 174.08-138.24 0-81.92-30.72-112.64-128-133.12-66.56-15.36-81.92-20.48-81.92-56.32 0-35.84 20.48-46.08 76.8-46.08 40.96 0 87.04 5.12 107.52 15.36l5.12-81.92c-20.48-10.24-71.68-15.36-117.76-15.36-122.88 0-168.96 46.08-168.96 128 0 71.68 25.6 102.4 117.76 128 76.8 15.36 92.16 25.6 92.16 66.56s-25.6 51.2-81.92 51.2c-40.96 0-92.16-5.12-133.12-20.48v87.04c35.84 10.24 92.16 15.36 138.24 15.36z" fill="#d81e06" p-id="2450"></path></svg>