<?xml version="1.0" standalone="no"?><!DOCTYPE svg PUBLIC "-//W3C//DTD SVG 1.1//EN" "http://www.w3.org/Graphics/SVG/1.1/DTD/svg11.dtd"><svg t="1692153956591" class="icon" viewBox="0 0 1024 1024" version="1.1" xmlns="http://www.w3.org/2000/svg" p-id="4544" xmlns:xlink="http://www.w3.org/1999/xlink" width="200" height="200"><path d="M781.6875634 208.64505858h-134.81782686c-9.30425926 0-17.23413778 3.30246827-23.84896177 9.87774171-6.57033009 6.62471144-9.87774172 14.53975915-9.87774172 23.83907432v134.81782685c0 9.32897824 3.31235572 17.27863241 9.87774172 23.83907432 6.61482398 6.61482398 14.54470252 9.89751734 23.84896176 9.89751734h134.81782686c9.30920334 0 17.25391343-3.28269263 23.82424351-9.89751734 6.62471144-6.56044191 9.90740481-14.51009607 9.90740479-23.8440184V242.36187461c0-9.29437179-3.28269263-17.21930624-9.90740479-23.83907432-6.57527345-6.57527345-14.51504016-9.87774172-23.8242435-9.87774171M646.84996163 141.21142578h134.81782685c27.89300285 0 51.74690871 9.87774172 71.50239213 29.63322515C872.92566404 190.60013436 882.78363013 214.42932121 882.78363013 242.34209896v134.81288351c0 27.91277775-9.8579668 51.75679616-29.61344952 71.51227958-19.75548343 19.75054006-43.60938928 29.62828178-71.50239213 29.62828105h-134.81782685c-27.93255338 0-51.75185207-9.87774172-71.50733549-29.62828105-19.75548343-19.75548343-29.63322515-43.60444593-29.63322588-71.51227958V242.34209896c0-27.91277775 9.87774172-51.74196462 29.63322588-71.49744803C595.10305292 151.0891675 618.91246488 141.21142578 646.84996163 141.21142578m134.83760176 471.90688826h-134.81782685c-9.30425926 0-17.23413778 3.32718727-23.84896178 9.87774173-6.57033009 6.63459962-9.87774172 14.56447815-9.87774171 23.86379331v134.81288278c0 9.30920334 3.31235572 17.27368832 9.87774171 23.82918685 6.61482398 6.61482398 14.54470252 9.90246071 23.84896177 9.90246143h134.81782686c9.30920334 0 17.25391343-3.28763673 23.82424351-9.89751734 6.62471144-6.56044191 9.90740481-14.52492761 9.90740479-23.83413094v-134.81288278c0-9.29931517-3.28269263-17.22919442-9.90740479-23.86379331-6.57527345-6.55055444-14.51504016-9.87774172-23.8242435-9.87774173M646.84996163 545.71434434h134.81782685c27.89300285 0 51.74690871 9.87774172 71.50239213 29.6282818 19.75548343 19.75548343 29.61345024 43.56983876 29.61344952 71.50239139v134.81288351c0 27.88805875-9.8579668 51.74196462-29.61344952 71.49744803-19.75548343 19.75548343-43.60938928 29.63322515-71.50239213 29.63322515h-134.81782685c-27.93255338 0-51.75185207-9.87774172-71.50733549-29.63322515-19.75548343-19.75548343-29.63322515-43.60444593-29.63322588-71.49744803v-134.81288351c0-27.93255338 9.87774172-51.74690871 29.63322588-71.5023914 19.75548343-19.75054006 43.56983876-29.62828178 71.50733549-29.62828179m-269.66037272-337.06928576H242.3569305c-9.30920334 0-17.22919442 3.31235572-23.85390585 9.88268507-6.55055444 6.62471144-9.87774172 14.53975915-9.87774171 23.83907432v539.31085797c0 9.30920334 3.32718727 17.27368832 9.87774171 23.82918686 6.62471144 6.61482398 14.54470252 9.90246071 23.85390586 9.90246071h134.8326584c9.30920334 0 17.25391343-3.28763673 23.82424279-9.89751661 6.62471144-6.56044191 9.89751734-14.52492761 9.89751734-23.83413096V242.36187461c0-9.29437179-3.27774927-17.21930624-9.89751734-23.83907432-6.57527345-6.57527345-14.51504016-9.87774172-23.82918687-9.87774171M242.34209896 141.21142578h134.83265842c27.90289029 0 51.73702053 9.87774172 71.48756059 29.63322515 19.76042752 19.75548343 29.63816923 43.5846703 29.63816923 71.49744803v539.31085798c0 27.88805875-9.87774172 51.74196462-29.63322515 71.49744805-19.75548343 19.75548343-43.58961439 29.63322515-71.49250468 29.63322514H242.3371556c-27.92266521 0-51.75679616-9.87774172-71.50239213-29.63322514C151.07928004 833.39492155 141.21142578 809.54595978 141.21142578 781.65295694V242.34209896C141.21142578 214.42932121 151.07928004 190.60013436 170.83476348 170.84465093 190.58035945 151.0891675 214.41448967 141.21142578 242.3371556 141.21142578" p-id="4545" fill="#8a8a8a"></path></svg>