<?xml version="1.0" standalone="no"?><!DOCTYPE svg PUBLIC "-//W3C//DTD SVG 1.1//EN" "http://www.w3.org/Graphics/SVG/1.1/DTD/svg11.dtd"><svg t="1692153931712" class="icon" viewBox="0 0 1024 1024" version="1.1" xmlns="http://www.w3.org/2000/svg" p-id="4037" xmlns:xlink="http://www.w3.org/1999/xlink" width="200" height="200"><path d="M647.529412 575.247059a60.235294 60.235294 0 0 0-60.235294 60.235294v210.823529a60.235294 60.235294 0 0 0 60.235294 60.235294h210.823529a60.235294 60.235294 0 0 0 60.235294-60.235294v-210.823529a60.235294 60.235294 0 0 0-60.235294-60.235294h-210.823529z m0-60.235294h210.823529a120.470588 120.470588 0 0 1 120.470588 120.470588v210.823529a120.470588 120.470588 0 0 1-120.470588 120.470589h-210.823529a120.470588 120.470588 0 0 1-120.470588-120.470589v-210.823529a120.470588 120.470588 0 0 1 120.470588-120.470588zM135.529412 575.247059a60.235294 60.235294 0 0 0-60.235294 60.235294v210.823529a60.235294 60.235294 0 0 0 60.235294 60.235294h210.823529a60.235294 60.235294 0 0 0 60.235294-60.235294v-210.823529a60.235294 60.235294 0 0 0-60.235294-60.235294h-210.823529z m0-60.235294h210.823529a120.470588 120.470588 0 0 1 120.470588 120.470588v210.823529a120.470588 120.470588 0 0 1-120.470588 120.470589h-210.823529a120.470588 120.470588 0 0 1-120.470588-120.470589v-210.823529a120.470588 120.470588 0 0 1 120.470588-120.470588zM647.529412 63.247059a60.235294 60.235294 0 0 0-60.235294 60.235294v210.823529a60.235294 60.235294 0 0 0 60.235294 60.235294h210.823529a60.235294 60.235294 0 0 0 60.235294-60.235294v-210.823529a60.235294 60.235294 0 0 0-60.235294-60.235294h-210.823529z m0-60.235294h210.823529a120.470588 120.470588 0 0 1 120.470588 120.470588v210.823529a120.470588 120.470588 0 0 1-120.470588 120.470589h-210.823529a120.470588 120.470588 0 0 1-120.470588-120.470589v-210.823529a120.470588 120.470588 0 0 1 120.470588-120.470588zM135.529412 63.247059a60.235294 60.235294 0 0 0-60.235294 60.235294v210.823529a60.235294 60.235294 0 0 0 60.235294 60.235294h210.823529a60.235294 60.235294 0 0 0 60.235294-60.235294v-210.823529a60.235294 60.235294 0 0 0-60.235294-60.235294h-210.823529z m0-60.235294h210.823529a120.470588 120.470588 0 0 1 120.470588 120.470588v210.823529a120.470588 120.470588 0 0 1-120.470588 120.470589h-210.823529a120.470588 120.470588 0 0 1-120.470588-120.470589v-210.823529a120.470588 120.470588 0 0 1 120.470588-120.470588z" fill="#8a8a8a" p-id="4038"></path></svg>