<?xml version="1.0" standalone="no"?><!DOCTYPE svg PUBLIC "-//W3C//DTD SVG 1.1//EN" "http://www.w3.org/Graphics/SVG/1.1/DTD/svg11.dtd"><svg t="1692153938634" class="icon" viewBox="0 0 1024 1024" version="1.1" xmlns="http://www.w3.org/2000/svg" p-id="4288" xmlns:xlink="http://www.w3.org/1999/xlink" width="200" height="200"><path d="M971.349393 22.078683a28.881582 28.881582 0 0 1 30.571852 30.645342V235.199768H22.078685V52.724025A28.955072 28.955072 0 0 1 52.724027 22.078683h918.625366" fill="#8a8a8a" p-id="4289"></path><path d="M1001.921245 257.246777H22.078685a22.047009 22.047009 0 0 1-22.047009-22.047009V52.724025A50.92859 50.92859 0 0 1 52.724027 0.031674h918.625366a50.92859 50.92859 0 0 1 52.618861 52.692351V235.199768a22.047009 22.047009 0 0 1-22.047009 22.047009zM44.125694 213.152759h935.748543V52.724025c0-6.173162-2.351681-8.598333-8.524844-8.598333h-918.625366C46.550865 44.125692 44.125694 46.550863 44.125694 52.724025z" fill="#8a8a8a" p-id="4290"></path><path d="M1001.921245 405.476166v213.121085H22.078685v-213.121085h979.84256" fill="#8a8a8a" p-id="4291"></path><path d="M1001.921245 640.64426H22.078685a22.047009 22.047009 0 0 1-22.047009-22.047009v-213.121085a22.047009 22.047009 0 0 1 22.047009-22.047009h979.84256a22.047009 22.047009 0 0 1 22.047009 22.047009v213.121085a22.047009 22.047009 0 0 1-22.047009 22.047009zM44.125694 596.550242h935.748543v-169.027067H44.125694z" fill="#8a8a8a" p-id="4292"></path><path d="M1001.921245 788.800159v182.549232a28.881582 28.881582 0 0 1-30.571852 30.571853h-918.625366A28.881582 28.881582 0 0 1 22.078685 971.349391v-182.549232h979.84256" fill="#8a8a8a" p-id="4293"></path><path d="M971.349393 1023.968252h-918.625366A50.92859 50.92859 0 0 1 0.031676 971.349391v-182.549232a22.047009 22.047009 0 0 1 22.047009-22.047009h979.84256a22.047009 22.047009 0 0 1 22.047009 22.047009v182.549232a50.8551 50.8551 0 0 1-52.618861 52.618861zM44.125694 810.847167v160.502224c0 6.173162 2.425171 8.524843 8.598333 8.524844h918.625366c6.173162 0 8.524843-2.351681 8.524844-8.524844v-160.502224z" fill="#8a8a8a" p-id="4294"></path></svg>