<?xml version="1.0" standalone="no"?><!DOCTYPE svg PUBLIC "-//W3C//DTD SVG 1.1//EN" "http://www.w3.org/Graphics/SVG/1.1/DTD/svg11.dtd"><svg t="1683854231937" class="icon" viewBox="0 0 1024 1024" version="1.1" xmlns="http://www.w3.org/2000/svg" p-id="2441" xmlns:xlink="http://www.w3.org/1999/xlink" width="200" height="200"><path d="M819.739896 553.442878c22.51069-45.163619 26.055422-94.005001 26.055422-147.724483 0-187.556677-144.793734-341.370855-335.046822-341.370855-190.259228 0-335.051939 153.788595-335.051939 341.370855 0 53.725622 3.544733 102.58747 26.055422 147.754159L74.54888 772.377192c0 0 87.035262 32.030507 177.007413 50.573839 59.995419 66.792219 108.715027 138.565892 108.715027 138.565892l118.865201-227.069599c7.28901 0.450255 17.881253 0 25.286919 0 7.401574 0 18.026562 0.450255 25.286919 0l126.433574 214.937281c0 0 53.82079-59.612703 113.790626-126.433574 89.971128-18.542308 177.007413-50.573839 177.007413-50.573839L819.739896 553.442878 819.739896 553.442878zM352.702947 873.52487c0 0-42.168402-54.16769-82.652442-93.556792-57.419757-16.32685-132.284839-32.876782-132.284839-32.876782l88.503706-151.720494c46.87868 61.185524 123.854842 118.955252 201.684442 137.91814L352.702947 873.52487zM504.423441 696.517457c-74.065879 0-283.646152-44.283576-290.798039-290.798039-4.497431-155.01247 136.116097-303.440987 290.798039-303.440987 154.677848 0 302.545594 148.366096 303.440987 303.440987C809.218262 640.188544 578.490344 696.517457 504.423441 696.517457zM656.143934 873.52487l-75.860758-139.077545c77.831646-18.962887 168.063717-77.892021 214.937281-139.077545l88.503706 151.720494c-0.025583-0.030699-74.865081 16.524348-132.284839 32.876782L656.143934 873.52487zM510.748497 204.610074c-108.394732 0-196.260919 87.917352-196.260919 196.367343 0 108.451014 87.866187 196.367343 196.260919 196.367343 108.389616 0 196.255803-87.915305 196.255803-196.367343C707.003276 292.527426 619.137089 204.610074 510.748497 204.610074L510.748497 204.610074zM517.067412 557.439912c-48.697095 0-156.248623-19.271926-164.364465-164.363442-4.325515-77.329203 86.952374-151.720494 164.364465-151.720494 77.407997 0 149.762909 86.938048 151.720494 164.363442C671.357428 507.340887 565.764508 557.439912 517.067412 557.439912z" fill="#8a8a8a" p-id="2442"></path></svg>