<?xml version="1.0" standalone="no"?><!DOCTYPE svg PUBLIC "-//W3C//DTD SVG 1.1//EN" "http://www.w3.org/Graphics/SVG/1.1/DTD/svg11.dtd"><svg t="1684138632790" class="icon" viewBox="0 0 1024 1024" version="1.1" xmlns="http://www.w3.org/2000/svg" p-id="3092" xmlns:xlink="http://www.w3.org/1999/xlink" width="200" height="200"><path d="M509.1 938.3c-11.6 0-22.8-1.3-32.9-4.1-5.6-1.5-10.5-3.3-14.9-5.2-6.2-2.2-12.3-5.1-18.1-8.6-1.8-0.9-7.5-4-15.4-8.6-12.6-7.3-26.6-15.8-41.6-25.6-45.6-29.5-88-61.4-126.1-94.9C1.8 564.2 48 371.1 132.3 249.1c9.6-12.4 18.2-22.3 26.8-31.4C262.3 109 386.3 102.5 508.2 199.4c1.2 1 2.4 1.9 3.6 2.9 1.2-1 2.4-1.9 3.6-2.9 122-97 246-90.5 349.2 18.3 8.7 9.1 17.2 19 26.5 30.9 0.4 0.5 0.8 1 1.2 1.6 83.9 121.5 129.7 314-128.7 541.1-38.2 33.5-80.6 65.4-126.1 94.9-15.1 9.7-29.1 18.3-41.7 25.6-8 4.7-13.9 7.9-16.1 9-18.6 11.2-45.3 17.5-70.6 17.5zM338 199.8c-45.4 0-88.8 21.5-129.6 64.6-7.3 7.6-14.4 15.9-21.4 24.9-98.6 142.8-59.3 295.1 118 451 35.6 31.3 75.4 61.2 118.1 88.8 14.1 9.1 27.1 17.1 38.9 23.9 6.9 4 11.9 6.8 14.6 8.2 3.7 2.2 6 3.2 8.3 4 1.2 0.4 2.4 0.9 3.5 1.4 1.6 0.8 3.6 1.4 5.8 2 14.5 4 39.5 0.6 52.5-7.2 3.6-1.9 8.4-4.6 15-8.4 11.9-6.9 24.9-14.9 39-23.9 42.7-27.6 82.5-57.5 118.1-88.8 177-155.5 216.7-307.2 118.2-450.7-7.5-9.6-14.5-17.7-21.6-25.2-77.7-81.9-164.4-86-257.7-11.9-8 6.3-15.4 12.9-22.5 19.6-13.1 12.3-33.5 12.3-46.5 0-7.1-6.7-14.6-13.2-22.5-19.5-44.4-35.2-87.2-52.8-128.2-52.8z" fill="#8a8a8a" p-id="3093"></path></svg>