<?xml version="1.0" standalone="no"?><!DOCTYPE svg PUBLIC "-//W3C//DTD SVG 1.1//EN" "http://www.w3.org/Graphics/SVG/1.1/DTD/svg11.dtd"><svg t="1684205523584" class="icon" viewBox="0 0 1024 1024" version="1.1" xmlns="http://www.w3.org/2000/svg" p-id="16347" xmlns:xlink="http://www.w3.org/1999/xlink" width="200" height="200"><path d="M736 531.2l-25.6 44.8c83.2 44.8 128 134.4 128 224l51.2 0C889.6 691.2 832 588.8 736 531.2zM505.6 128C390.4 128 300.8 224 300.8 339.2c0 76.8 38.4 140.8 96 179.2C281.6 556.8 192 672 192 806.4l51.2 0c0-140.8 121.6-262.4 268.8-262.4 115.2 0 211.2-96 211.2-211.2S620.8 128 505.6 128zM505.6 492.8c-83.2 0-153.6-70.4-153.6-153.6 0-83.2 70.4-153.6 153.6-153.6 83.2 0 153.6 70.4 153.6 153.6C665.6 422.4 595.2 492.8 505.6 492.8zM883.2 364.8c0-89.6-70.4-166.4-166.4-166.4 6.4 12.8 19.2 32 25.6 44.8 57.6 12.8 96 64 96 121.6 0 70.4-57.6 128-128 128-12.8 19.2-25.6 32-38.4 44.8 12.8 0 25.6-6.4 38.4-6.4C806.4 531.2 883.2 454.4 883.2 364.8zM902.4 518.4l-19.2 38.4c64 38.4 102.4 108.8 102.4 179.2L1024 736C1024 646.4 979.2 563.2 902.4 518.4zM0 736l44.8 0c0-76.8 38.4-147.2 102.4-179.2L121.6 518.4C44.8 563.2 0 646.4 0 736zM345.6 531.2C332.8 518.4 320 505.6 307.2 486.4c-70.4 0-128-57.6-128-128 0-57.6 44.8-108.8 96-121.6C288 224 294.4 211.2 300.8 192c-89.6 0-166.4 76.8-166.4 166.4 0 89.6 76.8 166.4 166.4 166.4C320 531.2 332.8 531.2 345.6 531.2z" p-id="16348" fill="#ffffff"></path></svg>