<?xml version="1.0" standalone="no"?><!DOCTYPE svg PUBLIC "-//W3C//DTD SVG 1.1//EN" "http://www.w3.org/Graphics/SVG/1.1/DTD/svg11.dtd"><svg t="1684204170119" class="icon" viewBox="0 0 1024 1024" version="1.1" xmlns="http://www.w3.org/2000/svg" p-id="6517" xmlns:xlink="http://www.w3.org/1999/xlink" width="200" height="200"><path d="M351.399464 702.798928c5.490617 19.217158 13.726542 43.924933 19.217158 57.651474-153.737265 115.302949-178.44504 131.774799-192.171582 150.991957-8.235925-13.726542-27.453083-35.689008-38.434316-46.670241 19.217158-13.726542 52.160858-49.41555 52.160858-96.085791V447.485255h-137.265416v-65.8874H255.313673V768.686327l96.085791-65.887399zM249.823056 307.474531C222.369973 269.040214 159.227882 205.898123 109.812332 164.718499l43.924933-41.179625C203.152815 164.718499 266.294906 219.624665 296.493298 258.058981l-46.670242 49.41555z m606.713137 538.080429c0 43.924933-10.981233 65.887399-38.434316 76.868632-30.198391 10.981233-79.613941 13.726542-153.737266 13.726542-2.745308-19.217158-13.726542-49.41555-21.962466-68.632708 57.651475 2.745308 109.812332 2.745308 126.284182 0 16.47185 0 21.962466-5.490617 21.962467-21.962466V203.152815H348.654155V140.010724h507.882038v705.544236z m-131.774799-491.410188H373.36193v-60.396783h354.144772v60.396783z m-255.313673 384.343164v63.142091h-63.142091v-356.890081h274.530831v293.74799h-211.38874z m0-233.351207v175.699732h148.246649v-175.699732h-148.246649z" p-id="6518" fill="#ffffff"></path></svg>