<?xml version="1.0" standalone="no"?><!DOCTYPE svg PUBLIC "-//W3C//DTD SVG 1.1//EN" "http://www.w3.org/Graphics/SVG/1.1/DTD/svg11.dtd"><svg t="1684736432929" class="icon" viewBox="0 0 1024 1024" version="1.1" xmlns="http://www.w3.org/2000/svg" p-id="11141" xmlns:xlink="http://www.w3.org/1999/xlink" width="200" height="200"><path d="M512.003 0C229.229 0 0 229.231 0 512s229.229 512 512.003 512C794.769 1024 1024 794.769 1024 512S794.769 0 512.003 0z m256.055 451.088c0 21.552-17.476 39.027-39.028 39.027-21.558 0-39.033-17.47-39.033-39.027v-61.886l-76.08 76.086c50.193 75.765 41.919 178.854-24.84 245.618-76.206 76.201-199.766 76.201-275.978 0-76.209-76.211-76.209-199.776 0-275.983 66.759-66.752 169.848-75.027 245.619-24.833l76.086-76.086h-61.892c-21.558 0-39.027-17.47-39.027-39.027 0-21.553 17.47-39.034 39.027-39.034h156.117c21.553 0 39.028 17.481 39.028 39.034v156.111h0.001z m-399.761 39.039c-45.728 45.722-45.728 119.854 0 165.576 45.724 45.722 119.86 45.722 165.588 0 45.721-45.722 45.721-119.854 0-165.576-45.728-45.728-119.864-45.728-165.588 0z" fill="#1296db" p-id="11142"></path></svg>