<?xml version="1.0" standalone="no"?><!DOCTYPE svg PUBLIC "-//W3C//DTD SVG 1.1//EN" "http://www.w3.org/Graphics/SVG/1.1/DTD/svg11.dtd"><svg t="1684293484887" class="icon" viewBox="0 0 1024 1024" version="1.1" xmlns="http://www.w3.org/2000/svg" p-id="5615" xmlns:xlink="http://www.w3.org/1999/xlink" width="200" height="200"><path d="M807.538 408.872l-99.22 231.336c-5.233 12.162-16.68 19.405-28.892 19.837a86.04 86.04 0 0 1-2.907 0c-12.311-0.416-23.858-7.66-29.108-19.837L561.499 441.17v185.847c0 18.359-14.87 33.228-33.228 33.228s-33.23-14.87-33.23-33.228V527.93l-66.755 115.618c-6.396 11.081-18.208 16.93-30.154 16.448-11.43 0.482-22.745-5.367-28.86-16.448l-73.601-133.28v116.749c0 18.359-14.87 33.228-33.229 33.228s-33.229-14.87-33.229-33.228V394.418c0-18.36 14.87-33.229 33.23-33.229 14.104 0 26.067 8.822 30.902 21.2 4.719 2.824 104.786 180.48 104.786 180.48l96.91-167.853s14.87-33.827 33.229-33.827c10.051 0 18.94 4.553 25.037 11.597 3.09-3.538 6.895-6.53 11.414-8.573 16.83-7.642 36.435-0.016 43.778 17.013l69.447 160.908 69.015-160.908c7.31-17.03 26.799-24.656 43.53-17.013 16.714 7.626 24.357 27.63 17.047 44.66z" fill="#D81E06" p-id="5616"></path><path d="M927.011 294.733c0-82.573-66.939-149.528-149.528-149.528H245.83c-82.59 0-149.528 66.955-149.528 149.528v431.969c0 82.589 66.939 149.527 149.528 149.527h531.653c82.59 0 149.528-66.938 149.528-149.527v-431.97zM794.097 942.686H229.214c-110.102 0-199.37-89.268-199.37-199.37V278.117c0-110.102 89.268-199.37 199.37-199.37h564.883c110.102 0 199.37 89.268 199.37 199.37v465.197c0 110.103-89.268 199.371-199.37 199.371z" fill="#D81E06" p-id="5617"></path></svg>