<?xml version="1.0" standalone="no"?><!DOCTYPE svg PUBLIC "-//W3C//DTD SVG 1.1//EN" "http://www.w3.org/Graphics/SVG/1.1/DTD/svg11.dtd"><svg t="1684806268170" class="icon" viewBox="0 0 1024 1024" version="1.1" xmlns="http://www.w3.org/2000/svg" p-id="2399" xmlns:xlink="http://www.w3.org/1999/xlink" width="200" height="200"><path d="M183.5 1024c-11.9 0-23.9-1.6-35.7-4.8-34.8-9.5-63.7-31.9-81.6-63.2-11.1-19.4-17.3-41.6-17.7-64.1V133.1C50.3 57.5 112.6-2.2 186.8 0.1c22.4 0.5 44.4 6.7 63.8 17.7l0.1 0.1 658 379c63.4 36.2 85.7 117.6 49.4 181.2-11.6 20.2-28.3 37.1-48.4 48.9l-659.4 379.2c-20.7 11.8-43.6 17.8-66.8 17.8z m0.1-935.3c-25.1 0-45.8 20.1-46.4 45.4V891c0.1 6.7 2.2 14.3 6.1 20.9 6.1 10.7 16.1 18.4 28 21.7 11.9 3.3 24.3 1.7 35-4.4l659-379c6.4-3.7 12-9.4 15.9-16.1 12-21.1 4.6-48.1-16.5-60.2l-658-379c-6.6-3.8-14.2-5.9-21.9-6.1-0.5 0-0.9-0.1-1.2-0.1z" fill="#8a8a8a" p-id="2400"></path></svg>