<?xml version="1.0" standalone="no"?><!DOCTYPE svg PUBLIC "-//W3C//DTD SVG 1.1//EN" "http://www.w3.org/Graphics/SVG/1.1/DTD/svg11.dtd"><svg t="1688712385359" class="icon" viewBox="0 0 1024 1024" version="1.1" xmlns="http://www.w3.org/2000/svg" p-id="5985" xmlns:xlink="http://www.w3.org/1999/xlink" width="200" height="200"><path d="M769.6690464 325.83577067c-48.92768 0-170.94398293 121.43997653-260.0420256 207.51885653C374.54296213 663.87610453 246.9424096 790.703856 144.81590507 790.703856l-62.818448 0c-25.67270613 0-46.4870272-20.82851093-46.4870272-46.4870272s20.81432107-46.4870272 46.4870272-46.4870272l62.818448 0c64.53760213 0 195.2031616-129.79342933 300.19492373-231.23663787 127.78283733-123.46039147 238.13836053-233.63144747 324.6593088-233.63144746l59.95646507 0-63.61744534-61.6832608c-18.169552-18.1258912-18.19793173-45.7622528-0.06112533-63.92307307 18.13571413-18.16627733 47.5698208-18.2022976 65.74046507-0.06985813l143.1548064 142.79896853c8.7387616 8.7169312 13.6473568 20.5207008 13.6473568 32.85713387 0 12.33534187-4.9085952 24.11182293-13.6473568 32.82875413L831.68740587 458.37438933c-9.07276907 9.05202987-20.95621973 13.3570112-32.83966934 13.3570112-11.91073813 0-23.82256853-4.98827627-32.90079466-14.07960213-18.1368064-18.16082027-18.10733547-48.46159893 0.06112533-66.58748907l63.61744533-65.22853866L769.6690464 325.83577067zM831.68740587 564.97178667c-18.1706432-18.13244053-47.60474987-18.1040608-65.74046507 0.06221653-18.1368064 18.159728-18.10733547 49.34136853 0.06112533 67.46725973l63.61744534 65.22744747-59.95646507 0c-38.1794176 0-101.96277547-56.4766784-165.20146133-115.59812587-18.7480608-17.53100907-48.17234347-17.43168-65.70117014 1.30874027-17.54083307 18.73932907-16.55845867 49.48654187 2.1906944 67.0120928 96.3435968 90.0891488 161.32981653 140.25025387 228.71193707 140.25025387l59.95646507 0-63.61744534 61.67998613c-18.169552 18.1258912-18.19793173 46.65184747-0.06112533 64.81266667 9.0793184 9.0913248 20.99005653 13.19437333 32.90079467 13.19437333 11.88345067 0 23.76690027-4.75032427 32.83966933-13.80235413L974.84221227 773.66512533c8.7387616-8.71802347 13.6473568-20.60365653 13.6473568-32.9400896 0-12.33534187-4.9085952-24.19477867-13.6473568-32.91280213L831.68740587 564.97178667zM81.99636587 325.83577067l62.818448 0c48.99426347 0 122.02830933 62.35236587 180.1761152 115.13859306 8.90904 8.08166293 20.08845547 12.949872 31.24494933 12.949872 12.64315307 0 25.25137707-4.68701547 34.42238293-14.78145386 17.2614016-18.9947456 15.8500576-49.94498347-3.1556032-67.19874454-90.93071573-82.5401504-166.99920533-139.0812288-242.68784426-139.0812288l-62.818448 0c-25.67270613 0-46.4870272 20.82851093-46.4870272 46.4870272S56.324752 325.83577067 81.99636587 325.83577067z" p-id="5986" fill="#ffffff"></path></svg>