<?xml version="1.0" standalone="no"?><!DOCTYPE svg PUBLIC "-//W3C//DTD SVG 1.1//EN" "http://www.w3.org/Graphics/SVG/1.1/DTD/svg11.dtd"><svg t="1684204132643" class="icon" viewBox="0 0 1024 1024" version="1.1" xmlns="http://www.w3.org/2000/svg" p-id="3439" xmlns:xlink="http://www.w3.org/1999/xlink" width="200" height="200"><path d="M803.584 134.592c-18.176-10.048-39.936-10.112-58.112 0L192 443.008l0-282.88c0-17.664-14.336-32-32-32S128 142.464 128 160.128l0 344.896C127.744 507.2 127.104 509.248 127.104 511.488S127.744 515.84 128 518.016l0 346.112c0 17.664 14.336 32 32 32s32-14.336 32-32L192 579.968l553.408 308.352C754.56 893.44 764.48 896 774.528 896s19.968-2.56 29.056-7.616c18.176-10.112 28.992-28.224 28.992-48.576L832.576 183.104C832.576 162.88 821.76 144.768 803.584 134.592zM768.192 829.248 198.016 511.488 771.328 192 768.192 829.248z" p-id="3440" fill="#ffffff"></path></svg>