<?xml version="1.0" standalone="no"?><!DOCTYPE svg PUBLIC "-//W3C//DTD SVG 1.1//EN" "http://www.w3.org/Graphics/SVG/1.1/DTD/svg11.dtd"><svg t="1683854277223" class="icon" viewBox="0 0 1024 1024" version="1.1" xmlns="http://www.w3.org/2000/svg" p-id="4677" xmlns:xlink="http://www.w3.org/1999/xlink" width="200" height="200"><path d="M622.9 618.1c3-13.7-3.9-27.4-16.1-33.4 29.9-11.4 57.3-29.2 80.7-52.4 43.6-43.6 67.7-101.6 67.7-163.3 0-61.6-24.1-119.7-67.7-163.3-43.6-43.6-101.7-67.7-163.4-67.7s-119.8 24.1-163.4 67.7C317.1 249.3 293 307.3 293 369c0 61.6 24.1 119.7 67.7 163.3 23 23 50 40.5 79.3 51.9-12.9 3.2-25.7 7-38.2 11.7-37.8 13.9-72.7 34.2-103.8 60-62.5 52.1-105.4 124.5-120.7 204-3.1 16.3 7.5 32.1 23.9 35.2 1.9 0.4 3.8 0.5 5.7 0.5 14.1 0 26.8-10 29.5-24.4 26.6-137.4 147.6-237 287.9-237 21.3 0 42.4 2.3 63 6.8 16 3.5 31.9-6.8 35.6-22.9zM353.1 369c0-94.1 76.7-170.8 171-170.8s171 76.6 171 170.8c0 94.2-76.8 170.7-171 170.7-94.3 0-171-76.6-171-170.7z m223 334.5c0 13.8 11.2 25 25 25h214.2c13.8 0 25-11.2 25-25s-11.2-25-25-25H601.1c-13.9 0-25 11.2-25 25zM815.2 764H601.1c-13.8 0-25 11.2-25 25s11.2 25 25 25h214.2c13.8 0 25-11.2 25-25s-11.2-25-25.1-25zM720 849.5H601c-13.8 0-25 11.2-25 25s11.2 25 25 25h119c13.8 0 25-11.2 25-25s-11.1-25-25-25z" fill="#8a8a8a" p-id="4678"></path></svg>