<?xml version="1.0" standalone="no"?><!DOCTYPE svg PUBLIC "-//W3C//DTD SVG 1.1//EN" "http://www.w3.org/Graphics/SVG/1.1/DTD/svg11.dtd"><svg t="1690796196847" class="icon" viewBox="0 0 1024 1024" version="1.1" xmlns="http://www.w3.org/2000/svg" p-id="2306" xmlns:xlink="http://www.w3.org/1999/xlink" width="200" height="200"><path d="M365.248 694.08c-8.192 0-16.384-3.136-22.656-9.344-12.48-12.48-12.48-32.768 0-45.248l555.84-555.84c12.48-12.48 32.768-12.48 45.248 0s12.48 32.768 0 45.248l-555.84 555.84C381.632 690.944 373.44 694.08 365.248 694.08z" fill="#ffffff" p-id="2307"></path><path d="M806.016 955.52 193.984 955.52c-70.592 0-128-57.408-128-128L65.984 160c0-70.592 57.408-128 128-128l442.048 0 0 64L193.984 96c-35.264 0-64 28.736-64 64l0 667.52c0 35.328 28.736 64 64 64l612.032 0c35.328 0 64-28.672 64-64L870.016 384.128l64 0 0 443.392C934.016 898.048 876.544 955.52 806.016 955.52z" fill="#ffffff" p-id="2308"></path></svg>