<?xml version="1.0" standalone="no"?><!DOCTYPE svg PUBLIC "-//W3C//DTD SVG 1.1//EN" "http://www.w3.org/Graphics/SVG/1.1/DTD/svg11.dtd"><svg t="1683854251290" class="icon" viewBox="0 0 1024 1024" version="1.1" xmlns="http://www.w3.org/2000/svg" p-id="3518" xmlns:xlink="http://www.w3.org/1999/xlink" width="200" height="200"><path d="M760.494561 239.764736 264.453021 239.764736c-73.224722 0-132.804678 59.579957-132.804678 132.804678l0 454.466656c0 73.224722 59.579957 132.804678 132.804678 132.804678L760.494561 959.840748c73.224722 0 132.804678-59.579957 132.804678-132.804678L893.299239 372.569414C893.299239 299.344692 833.719282 239.764736 760.494561 239.764736zM830.831512 827.037093c0 38.788421-31.549553 70.336952-70.336952 70.336952L264.453021 897.374044c-38.788421 0-70.336952-31.549553-70.336952-70.336952L194.116069 372.569414c0-38.788421 31.549553-70.336952 70.336952-70.336952l51.760874 0c-0.002047 0.135076-0.039909 0.260943-0.039909 0.396019l0 41.085744c0 17.253966 13.980409 31.233352 31.233352 31.233352s31.233352-13.980409 31.233352-31.233352l0-41.085744c0-0.1361-0.037862-0.260943-0.039909-0.396019l267.743974 0c-0.002047 0.135076-0.039909 0.260943-0.039909 0.396019l0 41.085744c0 17.253966 13.980409 31.233352 31.234375 31.233352s31.233352-13.980409 31.233352-31.233352l0-41.085744c0-0.1361-0.037862-0.260943-0.039909-0.396019l51.760874 0c38.788421 0 70.336952 31.549553 70.336952 70.336952L830.830489 827.037093z" fill="#8a8a8a" p-id="3519"></path><path d="M333.745177 210.432687c15.352663 7.635911 34.030048 1.342578 41.808198-13.908778 1.454118-2.836605 36.663014-69.584821 137.349181-69.584821 100.493785 0 134.940318 66.534346 136.231731 69.096704 5.347798 11.245112 16.551978 17.822924 28.224832 17.822924 4.494361 0 9.069563-0.976234 13.400195-3.040243 15.575744-7.411807 22.195511-26.048259 14.783705-41.625026-2.033309-4.270257-51.446719-104.72311-192.639438-104.72311-141.009548 0-191.32756 100.228749-193.401802 104.499006C312.017316 184.373171 318.402747 202.796776 333.745177 210.432687z" fill="#8a8a8a" p-id="3520"></path><path d="M390.588813 435.992909c-17.253966 0-31.234375 13.980409-31.234375 31.234375l0 30.470989c0 17.253966 13.980409 31.233352 31.234375 31.233352 17.253966 0 31.233352-13.980409 31.233352-31.233352l0-30.470989C421.822165 449.973318 407.842779 435.992909 390.588813 435.992909z" fill="#8a8a8a" p-id="3521"></path><path d="M634.358769 435.992909c-17.253966 0-31.234375 13.980409-31.234375 31.234375l0 30.470989c0 17.253966 13.980409 31.233352 31.234375 31.233352s31.234375-13.980409 31.234375-31.233352l0-30.470989C665.593144 449.973318 651.612735 435.992909 634.358769 435.992909z" fill="#8a8a8a" p-id="3522"></path><path d="M589.270874 577.053622c-14.539134-9.292644-33.846876-5.083785-43.149752 9.455349-0.121773 0.193405-13.379729 19.449981-33.968649 19.449981-19.989263 0-32.423457-18.098193-33.277918-19.36914-9.181103-14.427594-28.285207-18.819624-42.834574-9.760295-14.650675 9.099239-19.155269 28.356838-10.044774 43.007513 11.214413 18.047028 41.981137 48.589648 86.157265 48.589648 43.953048 0 75.095325-30.308283 86.574774-48.223305C608.030124 605.684706 603.800799 586.356498 589.270874 577.053622z" fill="#8a8a8a" p-id="3523"></path></svg>