<?xml version="1.0" standalone="no"?><!DOCTYPE svg PUBLIC "-//W3C//DTD SVG 1.1//EN" "http://www.w3.org/Graphics/SVG/1.1/DTD/svg11.dtd"><svg t="1683854305676" class="icon" viewBox="0 0 1024 1024" version="1.1" xmlns="http://www.w3.org/2000/svg" p-id="5735" xmlns:xlink="http://www.w3.org/1999/xlink" width="200" height="200"><path d="M748.858034 496.591055c58.797128-42.168402 95.67606-109.893876 95.67606-181.703365 0-124.101459-100.138698-225.047546-223.230154-225.047546-70.798463 0-133.931339 33.240055-175.040618 84.879156-16.650215-4.472871-34.037211-7.098675-52.068889-7.098675-112.828718 0-204.614168 92.106768-204.614168 205.344808 0 65.623603 29.29214 124.985596 77.703733 162.797783-84.082 42.24515-139.262764 127.59298-139.262764 222.818785l0 149.104923c0 13.809517 11.192923 25.012673 25.00244 25.012673l200.033849 0 266.699178 0 250.0418 0c13.809517 0 25.004487-11.203156 25.004487-25.012673L894.802988 742.711546C894.801964 634.45189 837.988004 541.519314 748.858034 496.591055zM178.027138 758.582001c0-89.431845 64.633043-170.926928 153.685241-193.799868 10.504238-2.723018 18.060331-11.865235 18.739806-22.679535 0.670266-10.8143-5.688559-20.812001-15.764032-24.818245-57.776891-22.796192-95.101985-79.473029-95.101985-144.31892 0-85.658915 69.359694-155.338904 154.60724-155.338904 8.286734 0 16.406668 0.720408 24.333198 2.023076-13.557784 28.951379-21.346167 61.160965-21.346167 95.237061 0 73.52148 33.346479 139.846048 88.243787 181.120081C390.577045 541.674856 328.055083 636.630509 328.055083 742.711546l0 139.960659L178.027138 882.672204 178.027138 758.582001zM844.79606 882.673228 378.060987 882.673228 378.060987 742.711546c0-100.363825 72.742744-191.93438 172.959214-217.685881 10.504238-2.684132 18.070564-11.82635 18.739806-22.64065 0.680499-10.8143-5.687536-20.849864-15.764032-24.818245-64.885799-25.635867-106.809631-89.509616-106.809631-162.680103 0-96.521311 78.111009-175.022199 174.116573-175.022199 95.52154 0 173.222203 78.500888 173.222203 175.022199 0 70.25304-45.989427 135.644353-114.435309 162.680103-10.07445 3.968381-16.444531 14.003945-15.772218 24.818245 0.681522 10.8143 8.237615 19.956517 18.739806 22.64065 96.734158 24.857131 161.737638 112.342648 161.737638 217.685881L844.795037 882.673228z" fill="#8a8a8a" p-id="5736"></path></svg>