<?xml version="1.0" standalone="no"?><!DOCTYPE svg PUBLIC "-//W3C//DTD SVG 1.1//EN" "http://www.w3.org/Graphics/SVG/1.1/DTD/svg11.dtd"><svg t="1684806280980" class="icon" viewBox="0 0 1024 1024" version="1.1" xmlns="http://www.w3.org/2000/svg" p-id="3524" xmlns:xlink="http://www.w3.org/1999/xlink" width="200" height="200"><path d="M512.001535 1023.967254c-281.904485 0-510.385223-229.231845-510.385223-511.967254C1.617335 229.222635 230.096027 0.032746 512.001535 0.032746c281.899368 0 510.38113 229.189889 510.38113 511.967254C1022.382665 794.735409 793.900903 1023.967254 512.001535 1023.967254zM512.001535 96.000448c-229.024114 0-414.667208 186.225355-414.667208 415.999552 0 229.690286 185.643094 415.95555 414.667208 415.95555 229.02002 0 414.665161-186.265264 414.665161-415.95555C926.666696 282.226826 741.021555 96.000448 512.001535 96.000448zM719.355093 559.962362 623.634008 559.962362l-63.754023 0L512.001535 559.962362l0 0c-26.420743 0-47.839565-21.460778-47.839565-47.962362L464.16197 223.972051c0-26.503631 21.418822-48.00534 47.839565-48.00534 26.459628 0 47.87845 21.50171 47.87845 48.00534l0 240.022609 63.754023 0 95.721085 0c26.415626 0 47.834448 21.502733 47.834448 48.00534S745.771743 559.962362 719.355093 559.962362z" p-id="3525" fill="#8a8a8a"></path></svg>