<?xml version="1.0" standalone="no"?><!DOCTYPE svg PUBLIC "-//W3C//DTD SVG 1.1//EN" "http://www.w3.org/Graphics/SVG/1.1/DTD/svg11.dtd"><svg t="1684205448690" class="icon" viewBox="0 0 1024 1024" version="1.1" xmlns="http://www.w3.org/2000/svg" p-id="13231" xmlns:xlink="http://www.w3.org/1999/xlink" width="200" height="200"><path d="M634.07 98.45c-50.47 0-95 25.15-121.97 63.53-26.97-38.38-71.5-63.53-121.97-63.53H64.87V196.72c0 125.37 101.63 227.01 227.01 227.01 29.89 0 54.21 24.32 54.21 54.21v121.95c0 14.97 12.14 27.11 27.11 27.11 14.97 0 27.11-12.14 27.11-27.11V477.94c0-59.88-48.54-108.42-108.42-108.42-95.28 0-172.79-77.52-172.79-172.79v-44.06h271.05c52.21 0 94.68 42.39 94.85 94.56v68.45c0 14.97 12.14 27.11 27.11 27.11 14.97 0 27.11-12.14 27.11-27.11v-68.14h0.02c0-52.31 42.56-94.87 94.87-94.87h271.05v44.06c0 95.28-77.52 172.79-172.79 172.79-59.88 0-108.42 48.54-108.42 108.42V627c-0.01 143.46-124.5 258.4-271.13 242.45-111.11-12.08-201.3-101.19-214.9-212.12-6.19-50.52 3.35-98.36 24.2-139.57 9.18-18.14-3.85-39.53-24.18-39.53-10.44 0-19.87 6.01-24.55 15.34C92 536.19 80.48 584.6 81.98 635.88 86.4 788.58 208.99 915.4 361.5 924.59c173.04 10.43 316.62-126.82 316.62-297.6V477.94c0-29.89 24.32-54.21 54.21-54.21 125.37 0 227.01-101.63 227.01-227.01V98.45H634.07z" p-id="13232" fill="#ffffff"></path></svg>