<?xml version="1.0" standalone="no"?><!DOCTYPE svg PUBLIC "-//W3C//DTD SVG 1.1//EN" "http://www.w3.org/Graphics/SVG/1.1/DTD/svg11.dtd"><svg t="1685700275765" class="icon" viewBox="0 0 1050 1024" version="1.1" xmlns="http://www.w3.org/2000/svg" p-id="2271" xmlns:xlink="http://www.w3.org/1999/xlink" width="205.078125" height="200"><path d="M23.261558 612.008319a109.591425 109.591425 0 0 0 87.968005 44.55735h247.031195a177.737962 177.737962 0 0 0-16.381379 49.144137l-3.931531 16.381379a364.649496 364.649496 0 0 0 8.518317 205.094865l7.371621 20.804352a112.212446 112.212446 0 0 0 105.168453 75.68197h2.948648a116.143977 116.143977 0 0 0 114.669653-111.229563v-29.486482c0-144.319949 106.970405-253.092305 248.833147-253.092305h112.212446c59.300592 0 111.721005-55.860502 111.721004-119.420253V111.721005A111.884818 111.884818 0 0 0 938.489202 0h-704.399296a112.048632 112.048632 0 0 0-106.970405 83.545033L4.259159 511.918093a114.669653 114.669653 0 0 0 19.002399 100.090226zM997.789794 111.721005v399.214205a65.525516 65.525516 0 0 1-59.300592 66.836027h-98.288274V52.420413h98.288274a59.300592 59.300592 0 0 1 59.300592 59.300592zM54.713806 526.49752L177.410334 98.288274a60.447288 60.447288 0 0 1 57.334827-45.048792h552.87154v526.988961C635.761318 598.24796 524.204127 722.254999 524.204127 883.447768v29.486483a63.887378 63.887378 0 0 1-62.413054 58.80915h-2.948648a60.283475 60.283475 0 0 1-55.532875-40.462006l-7.535434-20.804351a313.539594 313.539594 0 0 1-6.880179-175.444569l4.259159-18.347145v-5.405855a128.757639 128.757639 0 0 1 25.391137-54.713806v-52.584226H111.065749A57.334826 57.334826 0 0 1 65.525516 580.392257a60.283475 60.283475 0 0 1-10.81171-53.894737z" fill="#bfbfbf" p-id="2272"></path></svg>