<?xml version="1.0" standalone="no"?><!DOCTYPE svg PUBLIC "-//W3C//DTD SVG 1.1//EN" "http://www.w3.org/Graphics/SVG/1.1/DTD/svg11.dtd"><svg t="1684736390717" class="icon" viewBox="0 0 1024 1024" version="1.1" xmlns="http://www.w3.org/2000/svg" p-id="5656" xmlns:xlink="http://www.w3.org/1999/xlink" width="200" height="200"><path d="M457.267 675.02a273.1 273.1 0 1 0-59.085-34.098l-18.124 31.385-88.679-51.2a34.15 34.15 0 1 0-34.15 59.085l88.678 51.2-37.53 65.024a27.29 27.29 0 0 0 9.985 37.376l11.776 6.81c13.107 7.526 29.798 3.072 37.376-10.036l37.53-65.024 88.678 51.2a34.15 34.15 0 0 0 34.099-59.136l-88.679-51.2 18.125-31.385zM512 1024C229.222 1024 0 794.778 0 512S229.222 0 512 0s512 229.222 512 512-229.222 512-512 512z m-51.2-423.322a204.8 204.8 0 1 1 204.8-354.713 204.8 204.8 0 0 1-204.8 354.713z" fill="#D4237A" p-id="5657"></path></svg>