<?xml version="1.0" standalone="no"?><!DOCTYPE svg PUBLIC "-//W3C//DTD SVG 1.1//EN" "http://www.w3.org/Graphics/SVG/1.1/DTD/svg11.dtd"><svg t="1686214336294" class="icon" viewBox="0 0 1024 1024" version="1.1" xmlns="http://www.w3.org/2000/svg" p-id="13162" xmlns:xlink="http://www.w3.org/1999/xlink" width="200" height="200"><path d="M858.666667 465.92a21.333333 21.333333 0 0 0-5.333334 0v-45.866667c0-37.333333-27.946667-78.72-68.266666-78.72H134.186667C94.08 341.333333 64 382.933333 64 420.053333v152.96A364.586667 364.586667 0 0 0 426.666667 938.666667h65.706666A360.96 360.96 0 0 0 821.333333 722.56a21.333333 21.333333 0 0 0 12.373334 4.48 152.32 152.32 0 0 0 112.853333-42.666667 132.48 132.48 0 0 0 37.973333-93.653333 121.386667 121.386667 0 0 0-125.866666-124.8z m-48 106.666667A320 320 0 0 1 492.373333 896H426.666667A321.92 321.92 0 0 1 106.666667 573.013333v-152.96A36.48 36.48 0 0 1 134.186667 384H785.066667a35.84 35.84 0 0 1 25.6 36.053333v152.96z m106.666666 81.493333a111.786667 111.786667 0 0 1-80.213333 29.866667 368.64 368.64 0 0 0 16.213333-110.933334v-65.493333a21.333333 21.333333 0 0 0 5.333334 0 79.146667 79.146667 0 0 1 83.413333 81.92A90.026667 90.026667 0 0 1 917.333333 654.506667zM320 298.666667a21.333333 21.333333 0 0 0 21.333333-21.333334V149.333333a21.333333 21.333333 0 0 0-42.666666 0v128a21.333333 21.333333 0 0 0 21.333333 21.333334zM448 298.666667a21.333333 21.333333 0 0 0 21.333333-21.333334V64a21.333333 21.333333 0 0 0-42.666666 0v213.333333a21.333333 21.333333 0 0 0 21.333333 21.333334zM576 298.666667a21.333333 21.333333 0 0 0 21.333333-21.333334V149.333333a21.333333 21.333333 0 0 0-42.666666 0v128a21.333333 21.333333 0 0 0 21.333333 21.333334z" fill="#8a8a8a" p-id="13163"></path><path d="M213.333333 448a21.333333 21.333333 0 0 0-21.333333 21.333333v64a21.333333 21.333333 0 0 0 42.666667 0v-64a21.333333 21.333333 0 0 0-21.333334-21.333333z" fill="#8a8a8a" p-id="13164"></path><path d="M213.333333 618.666667m-21.333333 0a21.333333 21.333333 0 1 0 42.666667 0 21.333333 21.333333 0 1 0-42.666667 0Z" fill="#8a8a8a" p-id="13165"></path></svg>