<?xml version="1.0" standalone="no"?><!DOCTYPE svg PUBLIC "-//W3C//DTD SVG 1.1//EN" "http://www.w3.org/Graphics/SVG/1.1/DTD/svg11.dtd"><svg t="1686214220991" class="icon" viewBox="0 0 1024 1024" version="1.1" xmlns="http://www.w3.org/2000/svg" p-id="2458" xmlns:xlink="http://www.w3.org/1999/xlink" width="200" height="200"><path d="M512 64.194C264.707 64.194 64.194 264.707 64.194 512S264.707 959.806 512 959.806 959.806 759.293 959.806 512 759.293 64.194 512 64.194z m0 223.903a497.77 497.77 0 0 1-86.163-7.497C452.026 175.446 491.409 120.17 512 120.17s59.974 55.276 86.163 160.43c-27.888 4.798-56.676 7.497-86.163 7.497z m140.639-20.391c-13.594-55.676-31.786-102.556-53.077-137.34 63.572 14.594 121.247 44.681 168.927 86.063-35.285 21.79-74.268 39.082-115.85 51.277z m-281.278 0c-41.582-12.195-80.465-29.587-115.75-51.278 47.679-41.382 105.254-71.369 168.827-85.963-21.291 34.685-39.383 81.565-53.077 137.241z m308.066 216.306c-1.299-57.475-6.697-111.852-15.393-161.33 52.477-14.993 101.256-37.284 144.737-65.772 53.377 61.973 87.462 140.639 93.659 227.102H679.427z m-557.858 0c6.197-86.363 40.183-165.028 93.459-227.002 43.481 28.488 92.36 50.578 144.937 65.572-8.696 49.578-14.094 103.955-15.393 161.43H121.569z m278.979 0c1.299-55.676 6.397-105.354 13.894-148.636 31.586 5.598 64.072 8.696 97.558 8.696 33.386 0 65.971-2.999 97.558-8.596 7.497 43.281 12.495 92.96 13.894 148.536H400.548z m408.223 283.077c-43.481-28.488-92.26-50.778-144.737-65.771 8.696-49.578 14.094-103.955 15.393-161.33H902.43c-6.197 86.462-40.282 165.128-93.659 227.101z m-394.329-78.466c-7.497-43.281-12.495-92.96-13.894-148.636h222.803c-1.299 55.576-6.297 105.254-13.894 148.536-31.486-5.598-64.072-8.596-97.458-8.596s-65.97 3.099-97.557 8.696z m-199.313 78.366c-53.277-61.973-87.362-140.639-93.459-227.002h223.003c1.299 57.475 6.697 111.852 15.393 161.43-52.577 14.994-101.456 37.085-144.937 65.572zM512 903.83c-20.591 0-59.974-55.276-86.163-160.43 27.888-4.798 56.675-7.497 86.163-7.497 29.487 0 58.275 2.699 86.163 7.497C571.974 848.554 532.591 903.83 512 903.83z m87.562-10.196c21.291-34.785 39.483-81.665 53.077-137.34 41.682 12.195 80.565 29.487 115.85 51.178-47.68 41.482-105.355 71.569-168.927 86.162z m-175.124 0c-63.572-14.594-121.147-44.581-168.827-85.963 35.185-21.791 74.068-39.083 115.75-51.278 13.694 55.577 31.786 102.457 53.077 137.241z" p-id="2459" fill="#8a8a8a"></path></svg>